<?xml version="1.0" encoding="utf-8"?>
<!-- Generator: Adobe Illustrator 21.0.2, SVG Export Plug-In . SVG Version: 6.00 Build 0)  -->
<svg version="1.1" id="Layer_1" xmlns="http://www.w3.org/2000/svg" xmlns:xlink="http://www.w3.org/1999/xlink" x="0px" y="0px"
	 viewBox="0 0 243 245.5" style="enable-background:new 0 0 243 245.5;" xml:space="preserve">
<style type="text/css">
	.st0{fill-rule:evenodd;clip-rule:evenodd;}
	.st1{fill-rule:evenodd;clip-rule:evenodd;fill:none;stroke:#000000;stroke-width:4;stroke-miterlimit:10;}
	.st2{fill:none;stroke:#FF4000;stroke-width:8.5039;stroke-miterlimit:10;}
	.st3{fill:none;stroke:#1D1D1B;stroke-width:2;stroke-miterlimit:10;}
	.st4{fill:#1D1D1B;}
	.st5{fill:#FFFFFF;}
	.st6{fill:#B1B1B1;}
	.st7{opacity:0.54;}
	.st8{stroke:#FFFFFF;stroke-width:5;stroke-miterlimit:10;}
	.st9{fill:none;stroke:#FF4000;stroke-width:4;stroke-miterlimit:10;}
	.st10{fill:#FF4000;}
</style>
<g>
	<path d="M57,97.4V142H44.9v-31.2h-7.3v-7.3c1.9-0.3,3.5-0.9,5-1.9c1.5-1,2.5-2,3.1-2.8l0.8-1.3H57z"/>
	<path d="M98.7,136.7c-3.9,4.4-8.5,6.6-13.9,6.6s-10.1-2.2-13.9-6.6c-3.9-4.4-5.8-10-5.8-17s1.9-12.6,5.8-17
		c3.9-4.4,8.5-6.6,13.9-6.6s10.1,2.2,13.9,6.6c3.9,4.4,5.8,10,5.8,17S102.5,132.3,98.7,136.7z M79.3,129.2c1.5,2.2,3.3,3.2,5.4,3.2
		c2.1,0,3.9-1.1,5.4-3.2c1.5-2.2,2.2-5.3,2.2-9.5s-0.7-7.3-2.2-9.5c-1.5-2.2-3.3-3.2-5.4-3.2c-2.1,0-3.9,1.1-5.4,3.2
		c-1.5,2.2-2.2,5.3-2.2,9.5S77.8,127,79.3,129.2z"/>
	<path d="M135,126.1V142h-10.8v-31.2h9.2l8.6,10.9l8.6-10.9h9.2V142H149v-15.9l-7,8.9L135,126.1z"/>
	<path d="M178.3,126.1V142h-10.8v-31.2h9.2l8.6,10.9l8.6-10.9h9.2V142h-10.9v-15.9l-7,8.9L178.3,126.1z"/>
</g>
<ellipse class="st2" cx="121.5" cy="122.8" rx="117.3" ry="118.5"/>
</svg>
