<svg width="243" height="246" viewBox="0 0 243 246" fill="none" xmlns="http://www.w3.org/2000/svg">
<g clip-path="url(#clip0)">
<path d="M121.3 241C186.083 241 238.6 187.946 238.6 122.5C238.6 57.0543 186.083 4 121.3 4C56.517 4 4 57.0543 4 122.5C4 187.946 56.517 241 121.3 241Z" stroke="#FF4000" stroke-width="8.5039" stroke-miterlimit="10"/>
<path d="M112.679 129.473L110.105 154.272L137.351 143.251L117.902 160.925L152.11 163.121L120.996 168.935L153 183.76L118.559 176.154L139.784 199.636L111.243 180.65L116.002 206.496L101.01 181.216L88.0267 202.502L90.6005 177.702L63.3545 188.723L82.8042 171.049L48.5961 168.853L79.7102 163.04L47.7058 148.215L82.1473 155.82L60.9223 132.339L89.4627 151.325L84.7043 125.479L99.696 150.758L112.679 129.473Z" fill="#FF4000"/>
<path d="M178.507 49.4233L171.047 45L101.001 163.133L108.461 167.557L178.507 49.4233Z" fill="black"/>
</g>
<defs>
<clipPath id="clip0">
<rect width="243" height="245.5" fill="white"/>
</clipPath>
</defs>
</svg>
