<svg width="243" height="246" viewBox="0 0 243 246" fill="none" xmlns="http://www.w3.org/2000/svg">
<g clip-path="url(#clip0)">
<path d="M238.75 122.94C238.75 188.39 186.26 241.44 121.5 241.44C56.74 241.44 4.24999 188.39 4.24999 122.94C4.21786 103.871 8.76898 85.0733 17.52 68.1304C37.1 30.2804 76.32 4.44043 121.5 4.44043C186.26 4.44043 238.75 57.5004 238.75 122.94Z" stroke="#FF4000" stroke-width="8.5" stroke-miterlimit="10"/>
<path d="M122.23 204.771C122.03 204.771 101.94 199.871 83.39 181.881C66.27 165.281 47 133.781 52.34 78.0106V77.8706L122.27 42.8706L192.2 77.8706V78.0106C197.54 133.781 178.26 165.271 161.15 181.871C142.6 199.871 122.51 204.721 122.31 204.761H122.2L122.23 204.771Z" fill="black"/>
<path d="M122.28 43.1904L192 78.0404C202.33 185.81 122.3 204.53 122.3 204.53C122.3 204.53 42.3 185.82 52.6 78.0404L122.28 43.1904ZM122.28 42.6304L122.06 42.7404L52.36 77.5904L52.11 77.7104V77.9904C49.75 102.65 51.95 124.66 58.67 143.44C63.7679 158.036 72.1738 171.254 83.23 182.06C101.83 200.06 121.98 204.97 122.23 205.06H122.34H122.45C122.65 205.06 142.81 200.14 161.45 182.06C172.506 171.254 180.912 158.036 186.01 143.44C192.73 124.67 194.93 102.65 192.57 77.9904V77.7104L192.32 77.5904L122.5 42.7404L122.28 42.6304Z" fill="white"/>
<path d="M183.06 83.9005L122.28 53.5205L61.51 83.9005C52.51 177.901 122.28 194.201 122.28 194.201C122.28 194.201 192.06 177.881 183.06 83.9005Z" fill="white"/>
<path d="M152.647 113.9L117.047 149.5C116.247 150.3 115.147 150.7 114.047 150.7C112.947 150.7 111.847 150.3 111.047 149.5L89.0473 127.5C88.2473 126.7 87.8473 125.6 87.8473 124.5C87.8473 123.4 88.2473 122.3 89.0473 121.5L93.4473 117.1C95.1473 115.4 97.7473 115.4 99.4473 117.1L114.047 131.7L142.247 103.5C143.047 102.7 144.147 102.3 145.247 102.3C146.347 102.3 147.447 102.7 148.247 103.5L152.647 107.9C154.347 109.6 154.347 112.2 152.647 113.9Z" fill="black"/>
</g>
<defs>
<clipPath id="clip0">
<rect width="243" height="245.5" fill="white" transform="translate(0 0.19043)"/>
</clipPath>
</defs>
</svg>
