<svg width="815" height="815" viewBox="0 0 815 815" fill="none" xmlns="http://www.w3.org/2000/svg">
<path d="M407.5 801C624.824 801 801 624.824 801 407.5C801 190.176 624.824 14 407.5 14C190.176 14 14 190.176 14 407.5C14 624.824 190.176 801 407.5 801Z" stroke="#FF4000" stroke-width="28"/>
<path d="M432.968 413.551L305.296 321.2C301.39 318.389 295.975 318.803 292.542 322.226C289.11 325.658 288.686 331.063 291.516 334.979L383.888 462.671C390.476 471.736 401.109 477.151 412.334 477.151C421.704 477.151 430.532 473.491 437.17 466.853C444.439 459.584 448.158 449.533 447.359 439.265C446.56 428.997 441.322 419.627 432.968 413.551Z" fill="black"/>
<path d="M665.253 368.86C665.243 368.83 665.253 368.791 665.243 368.761C665.233 368.722 665.203 368.692 665.193 368.653C659.157 346.174 650.221 324.889 638.858 305.162C638.759 304.955 638.759 304.738 638.641 304.531C638.523 304.333 638.335 304.225 638.207 304.037C628.235 286.924 616.438 271.024 603.034 256.604L624.211 235.427L638.168 249.374L680.008 207.534L638.168 165.683L596.317 207.534L610.264 221.48L589.087 242.657C574.667 229.263 558.767 217.456 541.654 207.484C541.466 207.356 541.358 207.169 541.161 207.05C540.963 206.932 540.727 206.942 540.529 206.833C520.802 195.461 499.517 186.534 477.048 180.498C477.009 180.488 476.979 180.458 476.94 180.448C476.9 180.439 476.871 180.448 476.841 180.448C464.107 177.036 451.009 174.55 437.604 173.061V160.317H452.399C466.001 160.317 477.058 149.26 477.058 135.659C477.058 122.057 465.991 111 452.399 111H363.629C350.027 111 338.97 122.057 338.97 135.659C338.97 149.26 350.027 160.317 363.629 160.317H378.424V173.061C365.019 174.55 351.921 177.036 339.187 180.448C339.147 180.458 339.118 180.448 339.088 180.458C339.049 180.468 339.019 180.498 338.98 180.508C316.511 186.544 295.226 195.48 275.499 206.843C275.292 206.942 275.065 206.942 274.858 207.06C274.66 207.178 274.552 207.366 274.364 207.494C257.261 217.466 241.351 229.263 226.931 242.667L205.754 221.49L219.701 207.543L177.851 165.683L136 207.534L177.841 249.374L191.797 235.427L212.974 256.604C199.58 271.024 187.773 286.924 177.811 304.037C177.683 304.225 177.486 304.333 177.377 304.531C177.259 304.738 177.269 304.955 177.16 305.162C165.788 324.889 156.861 346.174 150.825 368.653C150.815 368.692 150.785 368.722 150.775 368.761C150.766 368.791 150.775 368.83 150.766 368.86C144.887 390.826 141.701 413.887 141.701 437.687C141.701 461.488 144.887 484.538 150.766 506.514C150.775 506.554 150.766 506.583 150.775 506.613C150.785 506.662 150.825 506.702 150.835 506.751C156.871 529.22 165.797 550.495 177.16 570.212C177.259 570.419 177.259 570.636 177.377 570.844C177.545 571.13 177.782 571.347 177.969 571.613C189.46 591.271 203.348 609.36 219.307 625.408C219.464 625.596 219.524 625.822 219.701 626C219.879 626.177 220.106 626.237 220.293 626.394C236.41 642.432 254.598 656.369 274.364 667.89C274.552 668.018 274.66 668.206 274.858 668.324C275.153 668.492 275.479 668.571 275.785 668.709C295.423 679.992 316.619 688.869 338.98 694.876C339.019 694.886 339.049 694.916 339.088 694.926C339.138 694.936 339.187 694.936 339.236 694.945C361.192 700.824 384.233 704 408.014 704C431.795 704 454.836 700.824 476.792 694.945C476.841 694.936 476.89 694.945 476.94 694.926C476.979 694.916 477.009 694.886 477.048 694.876C499.409 688.869 520.595 679.992 540.243 668.709C540.549 668.571 540.875 668.502 541.17 668.324C541.368 668.206 541.476 668.018 541.664 667.89C561.43 656.369 579.608 642.432 595.735 626.394C595.922 626.237 596.149 626.177 596.327 626C596.504 625.822 596.564 625.586 596.721 625.408C612.68 609.36 626.568 591.271 638.059 571.613C638.246 571.347 638.483 571.139 638.651 570.844C638.769 570.636 638.759 570.419 638.868 570.212C650.23 550.495 659.157 529.22 665.193 506.751C665.203 506.702 665.243 506.662 665.253 506.613C665.262 506.583 665.253 506.544 665.262 506.514C671.141 484.548 674.327 461.488 674.327 437.687C674.327 413.887 671.141 390.836 665.253 368.86ZM624.586 505.932L643.474 510.992C638.986 525.373 633.167 539.172 626.243 552.3L609.406 542.575C604.691 539.843 598.655 541.45 595.932 546.185C593.21 550.91 594.828 556.936 599.542 559.658L616.34 569.354C608.321 581.999 599.217 593.875 589.097 604.823L575.397 591.123C571.54 587.266 565.306 587.266 561.45 591.123C557.593 594.979 557.593 601.213 561.45 605.07L575.15 618.77C564.202 628.89 552.326 637.994 539.681 646.013L529.985 629.215C527.253 624.481 521.207 622.863 516.512 625.605C511.787 628.328 510.17 634.364 512.902 639.079L522.627 655.916C509.499 662.84 495.71 668.659 481.319 673.147L476.259 654.269C474.849 649.001 469.443 645.865 464.176 647.295C458.919 648.706 455.792 654.111 457.203 659.378L462.243 678.197C447.882 681.432 433.057 683.425 417.877 684.027V664.546C417.877 659.092 413.468 654.683 408.014 654.683C402.56 654.683 398.151 659.092 398.151 664.546V684.027C382.971 683.425 368.146 681.432 353.785 678.197L358.825 659.378C360.235 654.121 357.109 648.706 351.852 647.295C346.594 645.875 341.179 649.001 339.769 654.269L334.709 673.147C320.328 668.659 306.529 662.84 293.401 655.916L303.126 639.079C305.848 634.354 304.231 628.328 299.516 625.605C294.801 622.873 288.765 624.481 286.043 629.215L276.347 646.013C263.702 637.994 251.826 628.89 240.878 618.77L254.578 605.07C258.435 601.213 258.435 594.979 254.578 591.123C250.722 587.266 244.488 587.266 240.631 591.123L226.931 604.823C216.811 593.875 207.707 581.999 199.688 569.354L216.486 559.658C221.21 556.936 222.828 550.9 220.096 546.185C217.364 541.45 211.317 539.833 206.622 542.575L189.775 552.29C182.851 539.162 177.032 525.373 172.544 510.982L191.433 505.922C196.69 504.512 199.816 499.107 198.406 493.84C197.005 488.573 191.6 485.436 186.323 486.866L167.504 491.926C164.269 477.565 162.276 462.74 161.675 447.551H181.155C186.609 447.551 191.018 443.142 191.018 437.687C191.018 432.233 186.609 427.824 181.155 427.824H161.675C162.276 412.644 164.269 397.819 167.504 383.458L186.333 388.508C187.191 388.735 188.049 388.843 188.898 388.843C193.247 388.843 197.232 385.943 198.416 381.534C199.836 376.277 196.7 370.862 191.442 369.452L172.554 364.382C177.042 350.001 182.861 336.202 189.785 323.074L206.622 332.799C208.171 333.697 209.867 334.121 211.544 334.121C214.957 334.121 218.271 332.355 220.096 329.189C222.818 324.465 221.2 318.438 216.486 315.716L199.688 306.02C207.707 293.375 216.811 281.499 226.931 270.551L240.631 284.251C242.555 286.175 245.08 287.141 247.605 287.141C250.13 287.141 252.655 286.175 254.578 284.251C258.435 280.395 258.435 274.161 254.578 270.304L240.878 256.604C251.826 246.494 263.702 237.38 276.347 229.361L286.043 246.169C287.877 249.325 291.182 251.1 294.594 251.1C296.271 251.1 297.968 250.676 299.516 249.779C304.241 247.056 305.858 241.02 303.126 236.305L293.401 219.458C306.529 212.534 320.318 206.715 334.709 202.227L339.769 221.115C340.943 225.515 344.927 228.424 349.287 228.424C350.135 228.424 350.993 228.316 351.852 228.089C357.109 226.678 360.235 221.273 358.825 216.006L353.785 197.177C368.146 193.942 382.971 191.949 398.16 191.348V210.828C398.16 216.282 402.569 220.691 408.024 220.691C413.478 220.691 417.887 216.282 417.887 210.828V191.348C433.067 191.949 447.892 193.942 462.263 197.177L457.223 216.006C455.812 221.263 458.939 226.678 464.196 228.089C465.054 228.316 465.912 228.424 466.761 228.424C471.11 228.424 475.105 225.515 476.279 221.115L481.339 202.227C495.72 206.715 509.519 212.534 522.647 219.458L512.922 236.305C510.199 241.03 511.817 247.056 516.532 249.779C518.08 250.676 519.777 251.1 521.453 251.1C524.866 251.1 528.18 249.325 530.005 246.169L539.681 229.361C552.326 237.38 564.202 246.494 575.15 256.604L561.45 270.304C557.593 274.161 557.593 280.395 561.45 284.251C563.373 286.175 565.898 287.141 568.423 287.141C570.948 287.141 573.473 286.175 575.397 284.251L589.097 270.551C599.217 281.499 608.321 293.375 616.34 306.02L599.542 315.716C594.818 318.438 593.2 324.474 595.932 329.189C597.767 332.355 601.071 334.121 604.484 334.121C606.161 334.121 607.857 333.697 609.406 332.799L626.243 323.074C633.167 336.202 638.986 349.991 643.474 364.382L624.586 369.452C619.328 370.862 616.192 376.267 617.612 381.534C618.796 385.943 622.771 388.843 627.13 388.843C627.979 388.843 628.837 388.735 629.695 388.508L648.524 383.458C651.759 397.819 653.752 412.644 654.353 427.824H634.873C629.419 427.824 625.01 432.233 625.01 437.687C625.01 443.142 629.419 447.551 634.873 447.551H654.353C653.752 462.73 651.759 477.555 648.524 491.926L629.695 486.886C624.457 485.466 619.023 488.602 617.612 493.859C616.202 499.117 619.318 504.522 624.586 505.932Z" fill="black"/>
</svg>
